<?xml version="1.0" encoding="UTF-8"?>
<!-- Generator: Adobe Illustrator 27.7.0, SVG Export Plug-In . SVG Version: 6.00 Build 0)  -->
<svg xmlns="http://www.w3.org/2000/svg" xmlns:xlink="http://www.w3.org/1999/xlink" version="1.1" id="Layer_1" x="0px" y="0px" viewBox="0 0 62 54" overflow="hidden" xml:space="preserve" preserveAspectRatio="xMidYMid meet">
<style type="text/css">
	.st0{fill:#30302F;}
	.st1{fill:#57B847;}
	.st2{fill:#35B34A;}
	.st3{fill:#015983;}
	.st4{fill:#4EBB7A;}
	.st5{fill:#FECF0A;}
	.st6{fill:#ED364D;}
	.st7{fill:#19A149;}
	.st8{fill:#4F164A;}
	.st9{fill:#8C2670;}
	.st10{fill:#60205D;}
	.st11{fill:#3760AD;}
	.st12{fill:#F7B219;}
	.st13{fill:#F15E22;}
	.st14{fill:#32B44A;}
	.st15{fill:#CDDC2B;}
	.st16{fill:#F6851F;}
	.st17{fill:#C76228;}
	.st18{fill:#B62427;}
	.st19{fill:#FAA71B;}
	.st20{fill:#E69C24;}
	.st21{fill:#ED263C;}
	.st22{fill:#DF3427;}
	.st23{fill:#DCD222;}
	.st24{fill:#5AB047;}
	.st25{fill:#05AE6B;}
	.st26{fill:#028E8C;}
	.st27{fill:#419A46;}
	.st28{fill:#0ABFD8;}
	.st29{fill:#0BBAB4;}
	.st30{fill:#00A66A;}
	.st31{fill:#58B947;}
	.st32{fill:#4C184D;}
	.st33{fill:#381538;}
	.st34{fill:#6E276D;}
	.st35{fill:#601F5B;}
	.st36{fill:#A51D45;}
	.st37{fill:#7BC144;}
	.st38{fill:#A9A836;}
	.st39{fill:#C0B931;}
	.st40{fill:#E4C421;}
	.st41{fill:#8C183B;}
	.st42{fill:#7E1335;}
	.st43{fill:#19BFDA;}
	.st44{fill:#168599;}
</style>
<g>
	<g>
		<g>
			<path class="st0" d="M64.3,12.5c0-0.3,0.3-0.6,0.6-0.6h3.9c0.3,0,0.6,0.3,0.6,0.6V30h7.8c0.4,0,0.6,0.3,0.6,0.6v3.6     c0,0.3-0.3,0.6-0.6,0.6H64.9c-0.4,0-0.6-0.3-0.6-0.6V12.5z"></path>
			<path class="st0" d="M79.7,33.9L90,11.9c0.1-0.2,0.3-0.4,0.5-0.4h0.3c0.2,0,0.5,0.2,0.5,0.4l10.3,22.1c0.2,0.4-0.1,0.8-0.5,0.8     h-3.6c-0.6,0-0.9-0.2-1.2-0.8l-1.2-2.6h-8.9L85,34c-0.2,0.4-0.5,0.8-1.2,0.8h-3.6C79.8,34.8,79.5,34.4,79.7,33.9z M93.2,26.9     l-2.5-5.4h-0.1l-2.4,5.4C88.2,26.9,93.2,26.9,93.2,26.9z"></path>
			<path class="st0" d="M114.7,12.5c0-0.3,0.3-0.6,0.6-0.6h9.8c4.1,0,7.1,3.2,7.1,7.1c0,3-1.8,5.4-4.9,6.6l4.5,8.3     c0.2,0.4,0,1-0.5,1H127c-0.3,0-0.5-0.2-0.5-0.3l-4.4-8.7h-2.3v8.4c0,0.3-0.3,0.6-0.6,0.6h-3.9c-0.4,0-0.6-0.3-0.6-0.6L114.7,12.5     L114.7,12.5z M124.7,21.7c1.4,0,2.5-1.1,2.5-2.6c0-1.5-1.2-2.5-2.5-2.5h-4.9v5.1H124.7z"></path>
			<path class="st0" d="M137.7,12.5c0-0.3,0.3-0.6,0.6-0.6h13.6c0.4,0,0.6,0.3,0.6,0.6v3.6c0,0.3-0.3,0.6-0.6,0.6h-9.1v4.1h7.5     c0.3,0,0.6,0.3,0.6,0.6v3.6c0,0.4-0.3,0.6-0.6,0.6h-7.5V30h9.1c0.4,0,0.6,0.3,0.6,0.6v3.6c0,0.3-0.3,0.6-0.6,0.6h-13.6     c-0.4,0-0.6-0.3-0.6-0.6V12.5z"></path>
			<path class="st0" d="M158,12.5c0-0.3,0.3-0.6,0.6-0.6h8c6.3,0,11.5,5.1,11.5,11.4c0,6.4-5.2,11.5-11.5,11.5h-8     c-0.3,0-0.6-0.3-0.6-0.6V12.5z M166.5,30c3.7,0,6.1-2.9,6.1-6.7c0-3.7-2.4-6.6-6.1-6.6h-3.4V30H166.5z"></path>
		</g>
		<g>
			<path class="st0" d="M64.3,40.5c0-0.1,0.1-0.1,0.1-0.1h1.7c1.4,0,2.5,1.1,2.5,2.5s-1.1,2.5-2.5,2.5h-1.7c-0.1,0-0.1-0.1-0.1-0.1     V40.5z M66.1,44.5c0.9,0,1.6-0.6,1.6-1.6c0-1-0.7-1.6-1.6-1.6h-0.8v3.3L66.1,44.5L66.1,44.5z"></path>
			<path class="st0" d="M70.4,40.5c0-0.1,0.1-0.1,0.1-0.1h2.9c0.1,0,0.1,0.1,0.1,0.1v0.6c0,0.1-0.1,0.1-0.1,0.1h-2.1v1.2h1.8     c0.1,0,0.1,0.1,0.1,0.1v0.6c0,0.1-0.1,0.1-0.1,0.1h-1.8v1.3h2.1c0.1,0,0.1,0.1,0.1,0.1v0.6c0,0.1-0.1,0.1-0.1,0.1h-2.9     c-0.1,0-0.1-0.1-0.1-0.1V40.5z"></path>
			<path class="st0" d="M77.9,40.5c0-0.1,0.1-0.1,0.1-0.1h0.7c0.1,0,0.1,0.1,0.1,0.1v4.7c0,0.1-0.1,0.1-0.1,0.1h-0.6     c-0.1,0-0.1-0.1-0.1-0.1L77.9,40.5L77.9,40.5z"></path>
			<path class="st0" d="M81,40.4c0-0.1,0.1-0.1,0.1-0.1h0.1c0.1,0,0.1,0,0.1,0.1l2.9,3.1l0,0v-3c0-0.1,0.1-0.1,0.1-0.1H85     c0.1,0,0.1,0.1,0.1,0.1v4.8c0,0.1-0.1,0.1-0.1,0.1h-0.1c-0.1,0-0.1,0-0.1-0.1l-2.9-3.2l0,0v3.1c0,0.1-0.1,0.1-0.1,0.1h-0.6     c-0.1,0-0.1-0.1-0.1-0.1V40.4z"></path>
			<path class="st0" d="M87.3,40.4c0-0.1,0.1-0.1,0.1-0.1h0.1c0.1,0,0.1,0,0.1,0.1l2.9,3.1l0,0v-3c0-0.1,0.1-0.1,0.1-0.1h0.6     c0.1,0,0.1,0.1,0.1,0.1v4.8c0,0.1-0.1,0.1-0.1,0.1h-0.1c-0.1,0-0.1,0-0.1-0.1l-2.9-3.2l0,0v3.1c0,0.1-0.1,0.1-0.1,0.1h-0.6     c-0.1,0-0.1-0.1-0.1-0.1V40.4z"></path>
			<path class="st0" d="M95.8,40.3c1.4,0,2.6,1.2,2.6,2.6s-1.2,2.6-2.6,2.6c-1.4,0-2.6-1.1-2.6-2.6C93.3,41.5,94.4,40.3,95.8,40.3z      M95.8,44.5c0.9,0,1.6-0.7,1.6-1.6c0-0.9-0.7-1.6-1.6-1.6c-0.9,0-1.6,0.7-1.6,1.6C94.2,43.8,94.9,44.5,95.8,44.5z"></path>
			<path class="st0" d="M99.5,40.6c0-0.1,0-0.2,0.1-0.2h0.7c0.1,0,0.1,0,0.1,0.1l1.4,3.1h0l1.4-3.1c0,0,0.1-0.1,0.1-0.1h0.7     c0.1,0,0.2,0.1,0.1,0.2l-2.2,4.8c0,0-0.1,0.1-0.1,0.1h-0.1c-0.1,0-0.1,0-0.1-0.1L99.5,40.6z"></path>
			<path class="st0" d="M104.7,45.2l2.2-4.8c0,0,0.1-0.1,0.1-0.1h0.1c0.1,0,0.1,0,0.1,0.1l2.2,4.8c0,0.1,0,0.2-0.1,0.2h-0.6     c-0.1,0-0.2,0-0.2-0.1l-0.4-0.8H106l-0.4,0.8c0,0.1-0.1,0.1-0.2,0.1h-0.6C104.7,45.4,104.6,45.3,104.7,45.2z M107.7,43.7     l-0.7-1.6h0l-0.7,1.6H107.7z"></path>
			<path class="st0" d="M113.1,40.3c0.7,0,1.3,0.2,1.7,0.7c0.1,0.1,0.1,0.1,0,0.2l-0.5,0.5c-0.1,0.1-0.1,0.1-0.2,0     c-0.3-0.3-0.7-0.4-1.1-0.4c-0.9,0-1.6,0.8-1.6,1.7c0,0.9,0.7,1.6,1.6,1.6c0.4,0,0.8-0.2,1.1-0.4c0.1-0.1,0.1,0,0.2,0l0.5,0.5     c0.1,0.1,0,0.1,0,0.2c-0.5,0.5-1.1,0.7-1.7,0.7c-1.4,0-2.6-1.1-2.6-2.6C110.4,41.5,111.6,40.3,113.1,40.3z"></path>
			<path class="st0" d="M116.5,40.5c0-0.1,0.1-0.1,0.1-0.1h0.7c0.1,0,0.1,0.1,0.1,0.1v4.7c0,0.1-0.1,0.1-0.1,0.1h-0.7     c-0.1,0-0.1-0.1-0.1-0.1V40.5z"></path>
			<path class="st0" d="M121.8,40.3c1.4,0,2.6,1.2,2.6,2.6s-1.2,2.6-2.6,2.6c-1.4,0-2.6-1.1-2.6-2.6     C119.3,41.5,120.4,40.3,121.8,40.3z M121.8,44.5c0.9,0,1.6-0.7,1.6-1.6c0-0.9-0.7-1.6-1.6-1.6c-0.9,0-1.6,0.7-1.6,1.6     C120.2,43.8,120.9,44.5,121.8,44.5z M121.2,39.8l-0.1-0.3c0-0.1,0-0.1,0-0.1l1.2-0.7c0.1-0.1,0.2,0,0.2,0l0.2,0.4     c0.1,0.1,0,0.2,0,0.2l-1.3,0.5C121.2,39.9,121.2,39.9,121.2,39.8z"></path>
			<path class="st0" d="M126.2,40.4c0-0.1,0.1-0.1,0.1-0.1h0.1c0.1,0,0.1,0,0.1,0.1l2.9,3.1l0,0v-3c0-0.1,0.1-0.1,0.1-0.1h0.6     c0.1,0,0.1,0.1,0.1,0.1v4.8c0,0.1-0.1,0.1-0.1,0.1h-0.1c-0.1,0-0.1,0-0.1-0.1l-2.9-3.2l0,0v3.1c0,0.1-0.1,0.1-0.1,0.1h-0.6     c-0.1,0-0.1-0.1-0.1-0.1V40.4z"></path>
			<path class="st0" d="M135,40.5c0-0.1,0.1-0.1,0.1-0.1h2.9c0.1,0,0.1,0.1,0.1,0.1v0.6c0,0.1-0.1,0.1-0.1,0.1H136v1.2h1.8     c0.1,0,0.1,0.1,0.1,0.1v0.6c0,0.1-0.1,0.1-0.1,0.1H136v1.3h2.1c0.1,0,0.1,0.1,0.1,0.1v0.6c0,0.1-0.1,0.1-0.1,0.1h-2.9     c-0.1,0-0.1-0.1-0.1-0.1L135,40.5L135,40.5z"></path>
			<path class="st0" d="M142.6,40.5c0-0.1,0.1-0.1,0.1-0.1h0.7c0.1,0,0.1,0.1,0.1,0.1v4.7c0,0.1-0.1,0.1-0.1,0.1h-0.7     c-0.1,0-0.1-0.1-0.1-0.1V40.5z"></path>
			<path class="st0" d="M146.2,40.4c0-0.1,0.1-0.1,0.1-0.1h0.1c0.1,0,0.1,0,0.1,0.1l1.6,3.4c0,0,0,0,0,0l1.6-3.4     c0,0,0.1-0.1,0.1-0.1h0.1c0.1,0,0.1,0.1,0.1,0.1l0.8,4.8c0,0.1,0,0.2-0.1,0.2h-0.6c-0.1,0-0.1-0.1-0.1-0.1l-0.4-2.7h0l-1.3,2.8     c0,0-0.1,0.1-0.1,0.1h-0.1c-0.1,0-0.1,0-0.1-0.1l-1.3-2.8c0,0,0,0,0,0l-0.4,2.7c0,0.1-0.1,0.1-0.1,0.1h-0.6     c-0.1,0-0.2-0.1-0.1-0.2L146.2,40.4z"></path>
			<path class="st0" d="M152.7,40.5c0-0.1,0.1-0.1,0.1-0.1h1.7c0.9,0,1.6,0.7,1.6,1.6c0,0.9-0.7,1.6-1.6,1.6h-0.9v1.7     c0,0.1-0.1,0.1-0.1,0.1h-0.6c-0.1,0-0.1-0.1-0.1-0.1V40.5L152.7,40.5z M154.5,42.7c0.4,0,0.7-0.3,0.7-0.7c0-0.4-0.3-0.7-0.7-0.7     h-0.9v1.4H154.5z"></path>
			<path class="st0" d="M156.8,45.2l2.2-4.8c0,0,0.1-0.1,0.1-0.1h0.1c0.1,0,0.1,0,0.1,0.1l2.2,4.8c0,0.1,0,0.2-0.1,0.2h-0.6     c-0.1,0-0.2,0-0.2-0.1l-0.4-0.8h-2.1l-0.4,0.8c0,0.1-0.1,0.1-0.2,0.1h-0.6C156.8,45.4,156.7,45.3,156.8,45.2z M159.9,43.7     l-0.7-1.6h0l-0.7,1.6H159.9z"></path>
			<path class="st0" d="M165.2,40.3c0.7,0,1.3,0.2,1.7,0.7c0.1,0.1,0.1,0.1,0,0.2l-0.5,0.5c-0.1,0.1-0.1,0.1-0.2,0     c-0.3-0.3-0.7-0.4-1.1-0.4c-0.9,0-1.6,0.8-1.6,1.7c0,0.9,0.7,1.6,1.6,1.6c0.4,0,0.8-0.2,1.1-0.4c0.1-0.1,0.1,0,0.2,0l0.5,0.5     c0.1,0.1,0,0.1,0,0.2c-0.5,0.5-1.1,0.7-1.7,0.7c-1.4,0-2.6-1.1-2.6-2.6C162.6,41.5,163.7,40.3,165.2,40.3z"></path>
			<path class="st0" d="M169.5,41.2h-1.1c-0.1,0-0.1-0.1-0.1-0.1v-0.6c0-0.1,0.1-0.1,0.1-0.1h3.1c0.1,0,0.1,0.1,0.1,0.1v0.6     c0,0.1-0.1,0.1-0.1,0.1h-1.1v4c0,0.1-0.1,0.1-0.1,0.1h-0.7c-0.1,0-0.1-0.1-0.1-0.1L169.5,41.2L169.5,41.2z"></path>
			<path class="st0" d="M175.4,40.3c1.4,0,2.6,1.2,2.6,2.6s-1.2,2.6-2.6,2.6c-1.4,0-2.6-1.1-2.6-2.6C172.9,41.5,174,40.3,175.4,40.3     z M175.4,44.5c0.9,0,1.6-0.7,1.6-1.6c0-0.9-0.7-1.6-1.6-1.6c-0.9,0-1.6,0.7-1.6,1.6C173.8,43.8,174.5,44.5,175.4,44.5z"></path>
		</g>
	</g>
	<g>
		<rect x="26.4" y="17.4" transform="matrix(0.7071 -0.7071 0.7071 0.7071 -3.3955 26.7109)" class="st1" width="8.3" height="0"></rect>
		
			<rect x="26.4" y="17.4" transform="matrix(0.7071 -0.7071 0.7071 0.7071 -3.3918 26.6983)" class="st2" width="8.3" height="0.1"></rect>
		<g>
			
				<rect x="49.8" y="13.5" transform="matrix(0.7072 -0.7071 0.7071 0.7072 4.9298 39.4637)" class="st3" width="0.6" height="0.6"></rect>
			<rect x="49.5" y="16" transform="matrix(0.7071 -0.7071 0.7071 0.7071 2.999 40.0908)" class="st3" width="0.8" height="0.8"></rect>
			<rect x="47.8" y="12.9" transform="matrix(0.7071 -0.7071 0.7071 0.7071 4.6907 38.002)" class="st3" width="0.8" height="0.8"></rect>
			<rect x="47.4" y="17.1" transform="matrix(0.7071 -0.7071 0.7071 0.7071 1.5066 39.135)" class="st3" width="1.2" height="1.2"></rect>
			
				<rect x="47.9" y="10.8" transform="matrix(0.7073 -0.7069 0.7069 0.7073 6.4218 37.2672)" class="st3" width="0.6" height="0.1"></rect>
			
				<rect x="51.5" y="16.8" transform="matrix(0.7071 -0.7071 0.7071 0.7071 3.1099 41.6299)" class="st3" width="0.6" height="0.6"></rect>
			
				<rect x="45.7" y="15.4" transform="matrix(0.7071 -0.7071 0.7071 0.7071 2.1752 37.3961)" class="st3" width="1.1" height="1.4"></rect>
			
				<rect x="45.1" y="13.3" transform="matrix(0.7071 -0.7071 0.7071 0.7071 3.7316 36.4247)" class="st3" width="1.5" height="0.7"></rect>
			
				<rect x="44.3" y="14.7" transform="matrix(0.7071 -0.7071 0.7071 0.7071 2.4853 35.7841)" class="st3" width="0.2" height="0.5"></rect>
			
				<rect x="50.2" y="19.3" transform="matrix(0.7071 -0.7071 0.7071 0.7071 1.1392 41.4843)" class="st3" width="0.8" height="0.2"></rect>
		</g>
		<g>
			
				<rect x="37.6" y="10.6" transform="matrix(0.7071 -0.7071 0.7071 0.7071 2.9683 31.0675)" class="st4" width="2.7" height="2.7"></rect>
			
				<rect x="40.5" y="13.4" transform="matrix(0.7071 -0.7071 0.7071 0.7071 1.8359 34.1736)" class="st4" width="3.3" height="2.9"></rect>
			<polygon class="st4" points="38.7,20.3 41.2,17.9 36.2,12.9 34,15 33.5,14.5 33.2,14.8    "></polygon>
		</g>
		<g>
			<polygon class="st5" points="21.8,15.9 21.4,17 21.6,17.4 21,18.7 20.8,19.5 20.7,20.6 21.1,21.6 21.5,22.2 21.7,22.4 21.8,22.7      22.4,22.9 22.6,23.1 22.8,23 23.3,22.9 23.9,22.7 24.1,22.8 24.4,22.5 24.6,22.2 24.7,21.9 24.6,21.5 24.9,21.1 25.4,20.9      26.1,20.9 26.5,20.9 26.6,21.2 26.3,21.7 26.3,21.8 27.7,20.4 27.6,20.4 27.6,20.3 27.6,20.3 22.4,15.1 22.4,15.1    "></polygon>
			<polygon class="st5" points="23,24.3 22.5,24.1 21.6,24.4 20.9,24.3 20.3,24.1 20.3,24.1 22.1,25.9 23.5,24.6    "></polygon>
		</g>
		<g>
			<polygon class="st6" points="26.3,22.2 26.2,22.6 26.2,22.6 26.2,22.6 26.2,22.6 26,22.6 25.9,22.9 26.2,23.3 25.8,23.1      25.7,23.7 25.6,23.9 25.7,24 26.5,24 27.5,23.8 28.2,23.9 28.5,24.3 28.4,25.6 28.6,26 28.8,26.1 29.3,26.5 29.9,26.4 30.2,26.3      30.6,26.2 30.9,25.9 31.6,25.9 32.5,26.2 32.5,26.2 32.6,25.8 32.7,25.8 32.8,25.8 32.9,25.7 33,25.7 27.6,20.4 27.6,20.3      26.3,21.7    "></polygon>
			<polygon class="st6" points="31.8,26.6 31.8,26.4 31.2,26.2 30.5,26.7 30.8,26.9 30.4,27.1 29.7,27 29.1,26.8 28.8,26.6      27.8,26.3 27.3,26.3 27.3,25.8 26.2,25.2 25.7,25.2 25.2,25 23.9,25 23.9,25 23.4,24.6 22.1,25.9 27.6,31.4 32.1,26.9    "></polygon>
		</g>
		<polygon class="st7" points="33.3,25.7 33.5,25.5 33.5,25.5 38.7,20.3 33.2,14.8 27.6,20.4 33,25.7   "></polygon>
		<g>
			
				<rect x="28.4" y="48.9" transform="matrix(0.7071 -0.7071 0.7071 0.7071 -26.5396 35.039)" class="st8" width="1.2" height="1.2"></rect>
			<rect x="30.1" y="46" transform="matrix(0.7071 -0.7071 0.7071 0.7071 -24.342 35.8049)" class="st8" width="1.9" height="2.5"></rect>
			
				<rect x="31.3" y="50.6" transform="matrix(0.7072 -0.7071 0.7071 0.7072 -26.8123 37.3474)" class="st8" width="0.8" height="0.8"></rect>
			
				<rect x="34.2" y="51.7" transform="matrix(0.7071 -0.7071 0.7071 0.7071 -26.6415 39.5756)" class="st8" width="0.6" height="0.6"></rect>
			
				<rect x="33.5" y="48" transform="matrix(0.7071 -0.7071 0.7071 0.7071 -24.6315 38.0909)" class="st8" width="0.4" height="1.5"></rect>
			
				<rect x="25.8" y="45.4" transform="matrix(0.7071 -0.7071 0.7071 0.7071 -25.0757 32.8181)" class="st8" width="2.5" height="2.5"></rect>
			
				<rect x="23.5" y="51.8" transform="matrix(0.7071 -0.7071 0.7071 0.7071 -29.9427 31.9311)" class="st8" width="0.1" height="0.6"></rect>
			<polygon class="st8" points="29.3,45.4 29.9,44.7 27.6,42.5 25,45.1 25.2,45.3 27.2,43.3    "></polygon>
			
				<rect x="25.7" y="50.9" transform="matrix(0.7071 -0.7071 0.7071 0.7071 -28.656 33.5368)" class="st8" width="0.8" height="0.8"></rect>
			
				<rect x="28.7" y="52.4" transform="matrix(0.7071 -0.7071 0.7071 0.7071 -28.7733 35.9049)" class="st8" width="0.6" height="0.6"></rect>
			<rect x="23.3" y="47.9" transform="matrix(0.7071 -0.7071 0.7071 0.7071 -27.356 31.28)" class="st8" width="1.5" height="1.5"></rect>
		</g>
		<g>
			<polygon class="st9" points="30.9,39.2 30.8,39.3 30.9,39.3    "></polygon>
			<g>
				<polygon class="st9" points="36.6,43.2 38,41.8 34.5,38.3 33.6,38.3 33.6,38.4 33.6,38.5 33.5,38.7 33.4,38.8 33.1,38.7       32.9,38.6 32.9,38.9 33,39 33.1,39 33.1,39.2 32.7,39.3 32.7,39.4 32.6,39.6 32.3,39.7 32.1,39.8 32.2,40.1 32.4,40.1       32.3,40.4 31.9,40.6 31.8,40.7 31.4,40.9 31.4,41.1 31.4,41.3 31.4,41.3 31.3,41.4 31.4,41.6 31.4,41.7 31.8,42.3 31.9,42.3       31.8,42.4 31.6,42.3 31.5,42.4 31,42.4 30.9,42.2 30.7,42.2 30.6,42 30.5,41.9 30.4,41.9 30.3,41.6 30.2,41.5 30.3,41.4       30.4,41.2 30.4,41.1 30.4,41 30.4,40.9 30.3,40.7 30.3,40.6 30.3,40.3 30.5,40.2 30.5,40 30.5,39.8 30.4,39.7 30.5,39.6       30.6,39.6 30.7,39.6 30.8,39.4 30.8,39.3 27.6,42.5 29.9,44.7 30.9,43.7 32.3,45.1 34.2,43.3 33.2,42.3 34.5,41     "></polygon>
				
					<rect x="31.6" y="45.1" transform="matrix(0.7071 -0.7071 0.7071 0.7071 -23.4421 36.1669)" class="st9" width="0.6" height="2.5"></rect>
				
					<rect x="37.2" y="42.8" transform="matrix(0.7071 -0.7071 0.7071 0.7071 -19.1645 39.4031)" class="st9" width="1.5" height="0"></rect>
				
					<rect x="33.8" y="44.2" transform="matrix(0.7071 -0.7071 0.7071 0.7071 -21.466 37.9279)" class="st9" width="2.5" height="1.3"></rect>
			</g>
		</g>
		<g>
			<rect x="42.9" y="34" transform="matrix(0.7071 -0.7071 0.7071 0.7071 -12.4076 40.9849)" class="st10" width="0.7" height="3"></rect>
			<polygon class="st10" points="43.2,33.6 45.9,30.9 46.5,31.4 48.1,29.8 46.2,27.8 44.6,29.3 44,28.8 45.6,27.3 44.2,25.9      39.5,30.6 39.8,30.7 40.1,31.5 40.4,31.7 40.4,32 40.3,32.4 40.1,32.7 40,32.8 41.4,34.1 42.5,32.9    "></polygon>
			
				<rect x="47.9" y="30.8" transform="matrix(0.7071 -0.7071 0.7071 0.7071 -7.9449 43.5735)" class="st10" width="1.5" height="1.2"></rect>
			
				<rect x="44.9" y="32.7" transform="matrix(0.7071 -0.7071 0.7071 0.7071 -10.1743 42.4871)" class="st10" width="2.5" height="1.6"></rect>
		</g>
		<polygon class="st11" points="33.6,25.7 33.5,25.7 33.5,25.9 33.4,26.1 33.4,26.1 33.5,26.3 33.6,26.2 33.5,25.9 33.9,25.8     34.1,25.9 34.4,26.1 34.7,26.1 34.8,26.2 35.1,26.2 35.2,26.1 35.4,26.2 35.4,26.2 35.6,26.4 35.8,26.5 35.8,26.7 35.9,26.6     36,26.8 36.3,27 36.3,27.1 36.4,27.2 36.5,27.4 37,27.5 37.4,27.6 37.8,28 37.9,28.5 38,28.6 37.9,28.8 37.9,29 38.2,29.1     38.2,29.3 38.3,29.3 38.7,29.6 38.7,29.8 38.9,29.8 38.9,30.1 38.9,30.2 39,30.1 39.3,30.5 39.5,30.6 44.2,25.9 43.7,25.4     43.7,25.3 38.7,20.3 33.5,25.5   "></polygon>
		<g>
			<polygon class="st12" points="20.3,24.1 19.1,23.7 18.5,23.3 18.3,23.3 17.8,23.1 17.5,22.8 16.8,22.3 16.6,21.8 16.8,21.8      16.9,21.5 16.6,20.7 16.4,20.5 13.5,23.4 14,23.9 13.2,24.6 15.3,26.6 13.5,28.4 16.5,31.4 22.1,25.9    "></polygon>
			<polygon class="st12" points="11.9,25 11,25.9 12.6,27.5 13.6,26.6    "></polygon>
		</g>
		
			<rect x="18.2" y="27.5" transform="matrix(0.7072 -0.707 0.707 0.7072 -15.7539 24.8141)" class="st13" width="7.8" height="7.8"></rect>
		<g>
			
				<rect x="27.7" y="10.3" transform="matrix(0.7071 -0.7071 0.7071 0.7071 0.1693 23.6619)" class="st14" width="1.9" height="2.7"></rect>
			<polygon class="st14" points="22.4,15.1 22.3,15.1 27.6,20.4 33.2,14.8 30.9,12.5 28.8,14.6 25.8,11.6    "></polygon>
		</g>
		<g>
			
				<rect x="8" y="20.2" transform="matrix(0.7071 -0.7071 0.7071 0.7071 -12.3824 12.7598)" class="st15" width="2.3" height="2.3"></rect>
			
				<rect x="9.6" y="15.8" transform="matrix(0.7071 -0.7071 0.7071 0.7071 -8.7239 12.3064)" class="st15" width="1.7" height="1.7"></rect>
			<polygon class="st15" points="13.5,18 14,19 14.1,19.4 14.2,19.6 14.3,19.4 14.7,20.1 14.6,20.2 14.4,20.3 14.3,19.9 13.3,19.2      13.4,18.7 13.2,18.3 13,18.3 12.9,18.2 11.7,19.4 13.7,21.4 12.6,22.5 13.5,23.4 16.4,20.5 15.8,19.7 15.3,19.1 14.6,18.7      14.8,18.6 13.7,17.5 13.4,17.7    "></polygon>
			
				<rect x="10.4" y="24.3" transform="matrix(0.7071 -0.7071 0.7071 0.7071 -14.4186 15.0933)" class="st15" width="1.3" height="1.4"></rect>
			
				<rect x="5.7" y="19.7" transform="matrix(0.7071 -0.7071 0.7071 0.7071 -12.3018 10.2788)" class="st15" width="1.2" height="0.5"></rect>
			<rect x="7.2" y="18" transform="matrix(0.7071 -0.7071 0.7071 0.7071 -10.3861 10.8701)" class="st15" width="1.4" height="0"></rect>
		</g>
		<g>
			
				<rect x="11.5" y="35.5" transform="matrix(0.7071 -0.7071 0.7071 0.7071 -22.049 19.7669)" class="st16" width="2.7" height="2"></rect>
			
				<rect x="13.4" y="38.4" transform="matrix(0.7071 -0.7071 0.7071 0.7071 -23.6725 21.7776)" class="st16" width="2.2" height="2.2"></rect>
			<polygon class="st16" points="16.5,31.4 15,32.9 15.4,33.3 14.3,34.5 16.7,36.9 15.4,38.2 18.1,40.9 22.1,36.9    "></polygon>
			
				<rect x="15.4" y="41.7" transform="matrix(0.7071 -0.7071 0.7071 0.7071 -25.0411 23.8174)" class="st16" width="1.6" height="0.9"></rect>
		</g>
		<g>
			
				<rect x="8.9" y="41.9" transform="matrix(0.7071 -0.7071 0.7071 0.7071 -27.2252 19.0064)" class="st17" width="0.8" height="0.8"></rect>
			
				<rect x="9.1" y="44.5" transform="matrix(0.7071 -0.7071 0.7071 0.7071 -28.9128 19.7449)" class="st17" width="0.6" height="0.6"></rect>
			
				<rect x="7.2" y="40.3" transform="matrix(0.7071 -0.7071 0.7071 0.7071 -26.3238 17.2246)" class="st17" width="0.8" height="0.1"></rect>
			
				<rect x="9.1" y="38.3" transform="matrix(0.7071 -0.7071 0.7071 0.7071 -24.4391 18.2801)" class="st17" width="1.5" height="0.8"></rect>
			
				<rect x="11.1" y="44.4" transform="matrix(0.7072 -0.707 0.707 0.7072 -28.3093 21.2285)" class="st17" width="0.8" height="0.8"></rect>
			
				<rect x="11.3" y="46.5" transform="matrix(0.7071 -0.7071 0.7071 0.7071 -29.6911 21.9196)" class="st17" width="0.6" height="0.6"></rect>
			<rect x="15.4" y="42" transform="matrix(0.7071 -0.7071 0.7071 0.7071 -25.382 23.6862)" class="st17" width="1" height="0.9"></rect>
			
				<rect x="13.1" y="42.7" transform="matrix(0.7071 -0.7071 0.7071 0.7071 -26.6297 22.3705)" class="st17" width="1.2" height="1.2"></rect>
			
				<rect x="11.2" y="40.7" transform="matrix(0.7071 -0.7071 0.7071 0.7071 -25.7202 20.468)" class="st17" width="1.2" height="1.2"></rect>
			
				<rect x="7.2" y="42.1" transform="matrix(0.7071 -0.7071 0.7071 0.7071 -27.8234 17.7014)" class="st17" width="0.6" height="0.6"></rect>
			
				<rect x="13.6" y="39" transform="matrix(0.7071 -0.7071 0.7071 0.7071 -24.3049 21.5145)" class="st17" width="0.5" height="2.2"></rect>
		</g>
		<g>
			
				<rect x="18.8" y="42.7" transform="matrix(0.7071 -0.7071 0.7071 0.7071 -25.2568 27.1417)" class="st18" width="2.7" height="2.7"></rect>
			
				<rect x="16" y="42.3" transform="matrix(0.7071 -0.7071 0.7071 0.7071 -25.3134 24.4386)" class="st18" width="1.6" height="0.9"></rect>
			<polygon class="st18" points="22.1,36.9 18.1,40.9 19.1,41.8 20.4,40.5 25,45.1 27.6,42.5    "></polygon>
			
				<rect x="20.5" y="46.8" transform="matrix(0.7071 -0.7071 0.7071 0.7071 -27.4516 28.5406)" class="st18" width="0.5" height="1.2"></rect>
			
				<rect x="22.2" y="45.2" transform="matrix(0.7071 -0.7071 0.7071 0.7071 -25.7684 29.7081)" class="st18" width="1.5" height="1.5"></rect>
		</g>
		<g>
			
				<rect x="6.7" y="31.5" transform="matrix(0.7071 -0.7071 0.7071 0.7071 -20.6982 14.7148)" class="st19" width="1.4" height="1.8"></rect>
			<rect x="7" y="29" transform="matrix(0.7072 -0.707 0.707 0.7072 -18.4681 14.3884)" class="st19" width="2.2" height="0.9"></rect>
			
				<rect x="13.2" y="28.5" transform="matrix(0.7071 -0.7071 0.7071 0.7071 -17.5166 19.0782)" class="st19" width="2.2" height="4.3"></rect>
			
				<rect x="9.6" y="30.9" transform="matrix(0.7071 -0.7071 0.7071 0.7071 -19.6069 17.157)" class="st19" width="2.7" height="2.7"></rect>
			
				<rect x="8.9" y="34.1" transform="matrix(0.7071 -0.7071 0.7071 0.7071 -21.8883 16.5852)" class="st19" width="0.4" height="1.2"></rect>
			
				<rect x="10.5" y="35.2" transform="matrix(0.7071 -0.7071 0.7071 0.7071 -21.6546 18.8025)" class="st19" width="2.7" height="0.7"></rect>
			
				<rect x="9.8" y="26.4" transform="matrix(0.7071 -0.7071 0.7071 0.7071 -16.2784 15.8506)" class="st19" width="2.4" height="2.3"></rect>
		</g>
		<g>
			
				<rect x="5.5" y="36.9" transform="matrix(0.7071 -0.7071 0.7071 0.7071 -24.6704 15.1308)" class="st20" width="0.8" height="0.8"></rect>
			
				<rect x="6.6" y="32.1" transform="matrix(0.7071 -0.7071 0.7071 0.7071 -21.3324 14.44)" class="st20" width="0.4" height="1.8"></rect>
			
				<rect x="8.5" y="37.7" transform="matrix(0.7071 -0.7071 0.7071 0.7071 -24.2147 17.7336)" class="st20" width="1.5" height="0.8"></rect>
			
				<rect x="3.8" y="36" transform="matrix(0.7072 -0.7071 0.7071 0.7072 -24.4656 13.5102)" class="st20" width="0.6" height="0.6"></rect>
			
				<rect x="8.2" y="34.5" transform="matrix(0.7071 -0.7071 0.7071 0.7071 -22.3064 16.4033)" class="st20" width="0.8" height="1.2"></rect>
			
				<rect x="6.9" y="39.8" transform="matrix(0.7071 -0.7071 0.7071 0.7071 -26.2101 16.9467)" class="st20" width="0.8" height="0.7"></rect>
			
				<rect x="4.7" y="33.8" transform="matrix(0.7071 -0.7071 0.7071 0.7071 -22.6908 13.6278)" class="st20" width="0.8" height="0.8"></rect>
			
				<rect x="5.3" y="39.2" transform="matrix(0.7071 -0.7071 0.7071 0.7071 -26.2851 15.485)" class="st20" width="0.6" height="0.6"></rect>
		</g>
		
			<rect x="45.3" y="46.2" transform="matrix(0.7071 -0.7071 0.7071 0.7071 -19.3043 45.7747)" class="st8" width="0.6" height="0.1"></rect>
		<g>
			<polygon class="st21" points="33.5,26.3 33.4,26.2 33.5,26.3    "></polygon>
			<polygon class="st21" points="32.2,35.9 32.4,35.8 32.4,35.5 32.7,35.1 32.7,34.9 32.8,34.7 32.9,34.1 33,33.9 33.1,32.9      32.8,32.5 32.5,32.3 32,31.8 32.1,31.5 31.9,31.2 31.6,30.3 31.5,30.1 31.2,29.6 31.2,29.3 31.3,29.2 31.5,29 31.5,28.9      31.4,28.9 31.3,28.9 31.3,28.6 31.5,28.4 31.5,28.1 31.8,28 31.8,27.8 31.8,27.7 32,27.6 32.2,27.5 32.1,27.4 32.1,26.9      32.1,26.9 32.1,26.9 27.6,31.4 32.2,36    "></polygon>
		</g>
		<polygon class="st22" points="30.7,39.3 30.8,39.3 30.9,39.2 30.9,38.9 30.9,39 30.8,38.9 30.9,38.7 31,38.6 31.2,38.2 31.3,38.1     31.3,37.6 31.5,37.4 32.1,36.5 32.2,36 27.6,31.4 22.1,36.9 27.6,42.5 30.8,39.3   "></polygon>
		<g>
			
				<rect x="5.7" y="22.9" transform="matrix(0.7071 -0.7071 0.7071 0.7071 -14.8316 11.4457)" class="st23" width="1.4" height="1.4"></rect>
			
				<rect x="6.3" y="28.1" transform="matrix(0.7071 -0.7071 0.7071 0.7071 -18.1393 13.5979)" class="st23" width="2.2" height="1.3"></rect>
			
				<rect x="2.4" y="23.3" transform="matrix(0.7071 -0.7071 0.7071 0.7071 -15.7909 8.7636)" class="st23" width="0.6" height="0.4"></rect>
			
				<rect x="2.1" y="26.3" transform="matrix(0.7071 -0.7071 0.7071 0.7071 -18.1049 9.4525)" class="st23" width="0.6" height="0.6"></rect>
			
				<rect x="8.5" y="25.6" transform="matrix(0.7071 -0.7071 0.7071 0.7071 -15.728 14.5444)" class="st23" width="2.4" height="1.4"></rect>
			
				<rect x="4.6" y="30.2" transform="matrix(0.7071 -0.7071 0.7071 0.7071 -20.2602 12.2203)" class="st23" width="0" height="0.8"></rect>
			
				<rect x="3.7" y="27.8" transform="matrix(0.7071 -0.7071 0.7071 0.7071 -18.7685 11.2003)" class="st23" width="0.8" height="0.8"></rect>
			
				<rect x="4.2" y="21.5" transform="matrix(0.7071 -0.7071 0.7071 0.7071 -14.1229 9.6763)" class="st23" width="0.8" height="0.8"></rect>
			
				<rect x="3.7" y="25.1" transform="matrix(0.7071 -0.7071 0.7071 0.7071 -16.8589 10.4064)" class="st23" width="0.8" height="0.8"></rect>
			
				<rect x="5.3" y="26.1" transform="matrix(0.7071 -0.7071 0.7071 0.7071 -17.1412 11.9891)" class="st23" width="1.2" height="1.2"></rect>
		</g>
		<g>
			<rect x="16.7" y="4.6" transform="matrix(0.7071 -0.7071 0.7071 0.7071 1.448 13.562)" class="st24" width="0.8" height="0.8"></rect>
			
				<rect x="18.9" y="2.6" transform="matrix(0.7071 -0.7071 0.7071 0.7071 3.5714 14.4026)" class="st24" width="0.6" height="0.6"></rect>
			<rect x="18.9" y="5.2" transform="matrix(0.7071 -0.7071 0.7071 0.7071 1.6654 15.4217)" class="st24" width="1.2" height="1"></rect>
			
				<rect x="13.9" y="6.2" transform="matrix(0.7071 -0.7071 0.7071 0.7071 -0.5481 11.9361)" class="st24" width="0.4" height="0.8"></rect>
			
				<rect x="15.5" y="6.9" transform="matrix(0.7071 -0.7071 0.7071 0.7071 -0.5638 13.5156)" class="st24" width="1.2" height="1.2"></rect>
			
				<rect x="21.3" y="3.8" transform="matrix(0.7071 -0.7071 0.7071 0.7071 3.5738 16.4709)" class="st24" width="0.8" height="0.3"></rect>
			
				<rect x="14.5" y="4.5" transform="matrix(0.7071 -0.7071 0.7071 0.7071 0.9042 11.8388)" class="st24" width="0.6" height="0.6"></rect>
		</g>
		<g>
			<rect x="21.6" y="4" transform="matrix(0.7071 -0.7071 0.7071 0.7071 3.4571 16.7814)" class="st25" width="0.8" height="0.5"></rect>
			<rect x="19.3" y="6" transform="matrix(0.7071 -0.7071 0.7071 0.7071 1.4938 15.84)" class="st25" width="1.2" height="0.2"></rect>
			
				<rect x="23.8" y="7.5" transform="matrix(0.7071 -0.7071 0.7071 0.7071 1.0934 20.4143)" class="st25" width="2.7" height="2.7"></rect>
			<rect x="21.8" y="5.7" transform="matrix(0.7071 -0.7071 0.7071 0.7071 1.959 17.9159)" class="st25" width="1.7" height="1.7"></rect>
			
				<rect x="17.8" y="7.5" transform="matrix(0.7071 -0.7071 0.7071 0.7071 -0.6503 16.0412)" class="st25" width="2.5" height="2.7"></rect>
			
				<rect x="20.5" y="9.8" transform="matrix(0.7071 -0.7071 0.7071 0.7071 -1.4922 18.7145)" class="st25" width="2.7" height="2.7"></rect>
		</g>
		<g>
			<rect x="24.5" y="3" transform="matrix(0.707 -0.7072 0.7072 0.707 4.9028 18.6323)" class="st26" width="0.8" height="0.8"></rect>
			<rect x="26.4" y="1" transform="matrix(0.7071 -0.7071 0.7071 0.7071 6.8939 19.2734)" class="st26" width="0.6" height="0.6"></rect>
			
				<rect x="27.4" y="5.7" transform="matrix(0.7071 -0.7071 0.7071 0.7071 3.7239 21.7789)" class="st26" width="1.4" height="1.4"></rect>
			
				<rect x="25.1" y="4.8" transform="matrix(0.7071 -0.7071 0.7071 0.7071 3.7362 19.7558)" class="st26" width="1.2" height="1.2"></rect>
			
				<rect x="32.5" y="3.7" transform="matrix(0.7071 -0.7071 0.7071 0.7071 6.8696 24.3411)" class="st26" width="0.7" height="0.3"></rect>
			<rect x="27.8" y="3" transform="matrix(0.7071 -0.7072 0.7072 0.7071 5.8734 20.9827)" class="st26" width="0.8" height="0.8"></rect>
			
				<rect x="30.6" y="1.3" transform="matrix(0.7071 -0.7071 0.7071 0.7071 7.8572 22.2338)" class="st26" width="0.4" height="0.6"></rect>
			<rect x="30" y="4.6" transform="matrix(0.7071 -0.7071 0.7071 0.7071 5.2444 23.2286)" class="st26" width="1.4" height="1.4"></rect>
		</g>
		<g>
			
				<rect x="22.9" y="1.6" transform="matrix(0.7071 -0.7071 0.7071 0.7071 5.4211 16.9277)" class="st27" width="0.6" height="0.6"></rect>
			<rect x="21.9" y="3.5" class="st27" width="0" height="0.3"></rect>
		</g>
		<g>
			
				<rect x="35.9" y="4.5" transform="matrix(0.7071 -0.7071 0.7071 0.7071 7.1755 27.1494)" class="st28" width="0.8" height="0.8"></rect>
			<rect x="34.7" y="2" transform="matrix(0.7071 -0.7071 0.7071 0.7071 8.6368 25.4376)" class="st28" width="0.6" height="0.6"></rect>
			
				<rect x="41.6" y="5.1" transform="matrix(0.7071 -0.7071 0.7071 0.7071 8.4469 31.2134)" class="st28" width="0.6" height="0.6"></rect>
			
				<rect x="38.4" y="3.3" transform="matrix(0.7071 -0.7071 0.7071 0.7071 8.7756 28.4433)" class="st28" width="0.6" height="0.6"></rect>
			
				<rect x="38.7" y="5.7" transform="matrix(0.7071 -0.7071 0.7071 0.7071 7.1647 29.4672)" class="st28" width="0.8" height="0.8"></rect>
		</g>
		<g>
			<rect x="33" y="3.4" transform="matrix(0.7071 -0.7071 0.7071 0.7071 7.1474 24.4398)" class="st29" width="0.2" height="0.3"></rect>
			
				<rect x="30.9" y="1.2" transform="matrix(0.7071 -0.7071 0.7071 0.7071 8.0495 22.3233)" class="st29" width="0.2" height="0.6"></rect>
		</g>
		<g>
			
				<rect x="42.3" y="10.4" transform="matrix(0.7071 -0.7071 0.7071 0.7071 4.8054 33.631)" class="st30" width="1.3" height="1.3"></rect>
			
				<rect x="42.2" y="7.8" transform="matrix(0.7071 -0.7071 0.7071 0.7071 6.6753 32.5664)" class="st30" width="0.8" height="0.8"></rect>
			
				<rect x="39.7" y="8.2" transform="matrix(0.7071 -0.7071 0.7071 0.7071 5.5573 31.1256)" class="st30" width="1.3" height="1.3"></rect>
			<rect x="47.7" y="10.4" transform="matrix(0.707 -0.7072 0.7072 0.707 6.5198 37.0896)" class="st30" width="0.6" height="0.5"></rect>
			
				<rect x="45.1" y="7.7" transform="matrix(0.7072 -0.7071 0.7071 0.7072 7.6648 34.3915)" class="st30" width="0.6" height="0.6"></rect>
			
				<rect x="44.5" y="12.8" transform="matrix(0.7071 -0.7071 0.7071 0.7071 3.9518 35.8778)" class="st30" width="1.5" height="0.8"></rect>
			
				<rect x="45.6" y="10.3" transform="matrix(0.7071 -0.7071 0.7071 0.7071 5.9132 35.7084)" class="st30" width="0.8" height="0.8"></rect>
		</g>
		<g>
			
				<rect x="36.1" y="7.9" transform="matrix(0.7071 -0.7071 0.7071 0.7071 4.5941 28.6783)" class="st31" width="1.7" height="1.7"></rect>
			
				<rect x="33.6" y="6.3" transform="matrix(0.7071 -0.7071 0.7071 0.7071 5.1516 26.1407)" class="st31" width="1.2" height="1.2"></rect>
			
				<rect x="32.7" y="9.4" transform="matrix(0.7071 -0.7071 0.7071 0.7071 2.3449 27.2002)" class="st31" width="2.7" height="2.7"></rect>
			<polygon class="st31" points="30.6,6.3 31.6,5.3 31.6,5.3    "></polygon>
			
				<rect x="29.2" y="9.3" transform="matrix(0.7071 -0.7071 0.7071 0.7071 1.1225 24.0511)" class="st31" width="0.8" height="2.7"></rect>
			<rect x="32.8" y="3.9" transform="matrix(0.7071 -0.7071 0.7071 0.7071 6.733 24.6235)" class="st31" width="0.7" height="0.5"></rect>
			
				<rect x="31.9" y="11.9" transform="matrix(0.7071 -0.7071 0.7071 0.7071 -0.1404 26.6904)" class="st31" width="0.4" height="3.2"></rect>
			
				<rect x="30.2" y="7.3" transform="matrix(0.7071 -0.7071 0.7071 0.7071 3.3044 24.3366)" class="st31" width="1.7" height="1.7"></rect>
		</g>
		<g>
			
				<rect x="48.6" y="25.8" transform="matrix(0.7071 -0.7071 0.7071 0.7071 -4.3959 42.7852)" class="st32" width="1.7" height="1.7"></rect>
			
				<rect x="48.7" y="22.8" transform="matrix(0.7071 -0.7071 0.7071 0.7071 -2.1772 41.8642)" class="st32" width="1.5" height="1.5"></rect>
			
				<rect x="49.9" y="28.4" transform="matrix(0.7071 -0.7071 0.7071 0.7071 -5.751 44.2324)" class="st32" width="1.2" height="1.2"></rect>
			
				<rect x="51.6" y="26.8" transform="matrix(0.7071 -0.7071 0.7071 0.7071 -4.0099 44.7685)" class="st32" width="0.8" height="0.8"></rect>
			
				<rect x="50.9" y="24.6" transform="matrix(0.7071 -0.7071 0.7071 0.7071 -2.6926 43.7326)" class="st32" width="1.1" height="1.1"></rect>
			
				<rect x="47.1" y="27.2" transform="matrix(0.7071 -0.7071 0.7071 0.7071 -6.4014 41.8179)" class="st32" width="0.5" height="2.8"></rect>
			<rect x="46" y="24" transform="matrix(0.7071 -0.7071 0.7071 0.7071 -3.8915 40.569)" class="st32" width="2.1" height="2.1"></rect>
			
				<rect x="53.4" y="26.1" transform="matrix(0.7071 -0.7071 0.7071 0.7071 -2.8987 45.6918)" class="st32" width="0.6" height="0.6"></rect>
			
				<rect x="50.7" y="21.8" transform="matrix(0.707 -0.7072 0.7072 0.707 -0.7506 42.6049)" class="st32" width="0.8" height="0.8"></rect>
			
				<rect x="49.2" y="30.2" transform="matrix(0.7071 -0.7071 0.7071 0.7071 -7.4206 43.8865)" class="st32" width="0.1" height="1.4"></rect>
		</g>
		<g>
			
				<rect x="52.6" y="19.9" transform="matrix(0.7071 -0.7071 0.7071 0.7071 1.213 43.2935)" class="st33" width="0.6" height="0.6"></rect>
			
				<rect x="51.3" y="21.5" transform="matrix(0.7073 -0.7069 0.7069 0.7073 -0.4845 42.7021)" class="st33" width="0" height="0.8"></rect>
			
				<rect x="53.1" y="23" transform="matrix(0.7071 -0.7071 0.7071 0.7071 -0.8176 44.5637)" class="st33" width="0.6" height="0.6"></rect>
			
				<rect x="50.5" y="19.3" transform="matrix(0.7071 -0.7071 0.7071 0.7071 1.0204 41.7725)" class="st33" width="0.8" height="0.7"></rect>
		</g>
		<g>
			
				<rect x="49.8" y="40" transform="matrix(0.7072 -0.7071 0.7071 0.7072 -13.8334 47.2396)" class="st34" width="0.6" height="0.6"></rect>
			
				<rect x="44.1" y="36.5" transform="matrix(0.7071 -0.7071 0.7071 0.7071 -12.9025 42.1549)" class="st34" width="0.7" height="0.4"></rect>
			
				<rect x="47.5" y="35.8" transform="matrix(0.7071 -0.7071 0.7071 0.7071 -11.6524 44.7107)" class="st34" width="1.2" height="1.2"></rect>
			
				<rect x="48.8" y="37.9" transform="matrix(0.7071 -0.7072 0.7072 0.7071 -12.691 46.0574)" class="st34" width="0.8" height="0.8"></rect>
			
				<rect x="48.4" y="31.7" transform="matrix(0.7071 -0.7071 0.7071 0.7071 -8.1343 44.1348)" class="st34" width="1.5" height="0.4"></rect>
			
				<rect x="45.8" y="33.9" transform="matrix(0.7071 -0.7071 0.7071 0.7071 -10.5543 43.377)" class="st34" width="2.5" height="1"></rect>
			
				<rect x="45.9" y="37.7" transform="matrix(0.7071 -0.7071 0.7071 0.7071 -13.661 43.9712)" class="st34" width="0.7" height="1.5"></rect>
			
				<rect x="50.9" y="30.8" transform="matrix(0.7071 -0.7071 0.7071 0.7071 -7.0818 45.3848)" class="st34" width="0.6" height="0.8"></rect>
			<rect x="50" y="33.9" transform="matrix(0.7072 -0.7071 0.7071 0.7072 -9.54 45.8074)" class="st34" width="1" height="1"></rect>
			
				<rect x="52.6" y="32.8" transform="matrix(0.7071 -0.7072 0.7072 0.7071 -7.8874 47.1059)" class="st34" width="0.6" height="0.6"></rect>
			<rect x="48" y="40.4" transform="matrix(0.7074 -0.7068 0.7068 0.7074 -14.7621 45.8913)" class="st34" width="0" height="0.8"></rect>
			
				<rect x="51.6" y="36.5" transform="matrix(0.7071 -0.7071 0.7071 0.7071 -10.8101 47.4843)" class="st34" width="0.6" height="0.6"></rect>
		</g>
		<g>
			
				<rect x="53.4" y="26.1" transform="matrix(0.7071 -0.7071 0.7071 0.7071 -2.8987 45.6918)" class="st35" width="0.6" height="0.6"></rect>
			
				<rect x="51.6" y="26.8" transform="matrix(0.7071 -0.7071 0.7071 0.7071 -4.0099 44.7685)" class="st35" width="0.8" height="0.8"></rect>
			
				<rect x="50.9" y="24.6" transform="matrix(0.7071 -0.7071 0.7071 0.7071 -2.6926 43.7326)" class="st35" width="1.1" height="1.1"></rect>
			
				<rect x="49.9" y="28.4" transform="matrix(0.7071 -0.7071 0.7071 0.7071 -5.7499 44.2315)" class="st35" width="1.2" height="1.2"></rect>
			
				<rect x="53.2" y="29.3" transform="matrix(0.7071 -0.7071 0.7071 0.7071 -5.2236 46.451)" class="st35" width="0.6" height="0.5"></rect>
			
				<rect x="48.6" y="25.8" transform="matrix(0.7071 -0.7071 0.7071 0.7071 -4.3975 42.7865)" class="st35" width="1.7" height="1.7"></rect>
			
				<rect x="51.4" y="30.5" transform="matrix(0.7071 -0.7071 0.7071 0.7071 -6.7934 45.5079)" class="st35" width="0.2" height="0.8"></rect>
			
				<rect x="53.1" y="23" transform="matrix(0.7071 -0.7071 0.7071 0.7071 -0.8176 44.5637)" class="st35" width="0.6" height="0.6"></rect>
			
				<rect x="48.8" y="23" transform="matrix(0.7071 -0.7071 0.7071 0.7071 -2.1965 41.9387)" class="st35" width="1.5" height="1.3"></rect>
			
				<rect x="50.7" y="21.8" transform="matrix(0.707 -0.7072 0.7072 0.707 -0.7279 42.6261)" class="st35" width="0.8" height="0.8"></rect>
			
				<rect x="46.4" y="25" transform="matrix(0.7071 -0.7071 0.7071 0.7071 -4.0625 40.9758)" class="st35" width="2.1" height="0.9"></rect>
		</g>
		<g>
			
				<rect x="38" y="42.5" transform="matrix(0.7071 -0.7071 0.7071 0.7071 -19.4759 40.1885)" class="st8" width="1.5" height="2.2"></rect>
			
				<rect x="39.4" y="45.2" transform="matrix(0.7071 -0.7071 0.7071 0.7071 -20.7267 41.8548)" class="st8" width="1.5" height="1.5"></rect>
			
				<rect x="34.7" y="45.1" transform="matrix(0.7071 -0.7071 0.7071 0.7071 -21.8291 38.8167)" class="st8" width="2.5" height="1.3"></rect>
			<rect x="39" y="50" transform="matrix(0.7071 -0.7071 0.7071 0.7071 -24.0672 42.5343)" class="st8" width="0.6" height="0.6"></rect>
			
				<rect x="39.5" y="47.8" transform="matrix(0.7071 -0.7071 0.7071 0.7071 -22.3977 42.3537)" class="st8" width="0.8" height="0.8"></rect>
			
				<rect x="33.5" y="47.5" transform="matrix(0.7071 -0.7071 0.7071 0.7071 -24.1496 38.2705)" class="st8" width="1.3" height="1.5"></rect>
			
				<rect x="42.2" y="48.1" transform="matrix(0.7071 -0.7071 0.7071 0.7071 -21.7797 44.2142)" class="st8" width="0.6" height="0.6"></rect>
			
				<rect x="42.5" y="46" transform="matrix(0.7071 -0.7071 0.7071 0.7071 -20.3317 43.6873)" class="st8" width="0.1" height="0.8"></rect>
			
				<rect x="36.8" y="46.9" transform="matrix(0.7071 -0.7071 0.7071 0.7071 -22.6497 40.4039)" class="st8" width="1.2" height="1.2"></rect>
			
				<rect x="36.2" y="49.6" transform="matrix(0.7071 -0.7071 0.7071 0.7071 -24.6639 40.5224)" class="st8" width="0.8" height="0.8"></rect>
		</g>
		<g>
			<polygon class="st36" points="39,36.5 41.4,34.1 40.1,32.8 39.9,32.9 39.7,33.1 39.5,33.4 39.3,33.4 39.3,33.5 39.2,33.7      39.2,34 39.2,34.1 39.1,34.3 39.1,34.4 39,34.7 38.8,34.9 38.8,35.1 38.6,35.2 38.2,35.1 38,35.1 37.7,35.1 37.5,35.2 37.3,35.5      37.3,35.7 37.2,36 37,36.2 36.8,36.5 36.5,36.8 36.3,36.9 36.2,37.1 36,37.3 35.6,37.5 35.3,37.5 35,37.4 34.9,37.4 34.8,37.3      35,37.6 34.9,37.8 35,37.8 35,38 34.7,38.3 34.5,38.3 38,41.8 41.1,38.6    "></polygon>
			<rect x="38.4" y="42" transform="matrix(0.7071 -0.7071 0.7071 0.7071 -18.3595 39.7248)" class="st36" width="0.7" height="0"></rect>
			
				<rect x="40.8" y="35.2" transform="matrix(0.7071 -0.7071 0.7071 0.7071 -13.5832 40.489)" class="st36" width="2.6" height="3"></rect>
		</g>
		<g>
			<polygon class="st37" points="14.8,18.5 14.6,18 14.3,17.8 14.2,17.6 13.8,17.3 13.8,17.3 13.7,17.5 14.8,18.6    "></polygon>
			
				<rect x="15.6" y="11.4" transform="matrix(0.7071 -0.7071 0.7071 0.7071 -4.089 15.7871)" class="st37" width="2.9" height="2.9"></rect>
			
				<rect x="11.7" y="13.4" transform="matrix(0.7071 -0.7071 0.7071 0.7071 -6.3764 13.2881)" class="st37" width="2.3" height="1.9"></rect>
		</g>
		<g>
			<rect x="9.3" y="8.3" transform="matrix(0.7071 -0.7071 0.7071 0.7071 -3.2369 9.2648)" class="st24" width="0.6" height="0.6"></rect>
			
				<rect x="9.5" y="12.6" transform="matrix(0.7071 -0.7071 0.7071 0.7071 -6.4435 10.7985)" class="st24" width="0.6" height="1.2"></rect>
			
				<rect x="9.1" y="10.7" transform="matrix(0.7071 -0.7071 0.7071 0.7071 -5.0576 9.9974)" class="st24" width="0.8" height="0.8"></rect>
			
				<rect x="11.5" y="8.3" transform="matrix(0.7071 -0.7071 0.7071 0.7071 -2.6812 10.9842)" class="st24" width="0.8" height="0.8"></rect>
			
				<rect x="13.6" y="6.5" transform="matrix(0.7071 -0.7071 0.7071 0.7071 -0.8379 11.8205)" class="st24" width="0.5" height="0.8"></rect>
			<rect x="11" y="13.3" transform="matrix(0.7071 -0.7071 0.7071 0.7071 -6.036 12.5052)" class="st24" width="2.3" height="0.4"></rect>
			
				<rect x="13.4" y="8.9" transform="matrix(0.7071 -0.7071 0.7071 0.7071 -2.738 12.9571)" class="st24" width="1.7" height="1.7"></rect>
			
				<rect x="11.2" y="10.7" transform="matrix(0.7071 -0.7071 0.7071 0.7071 -4.5237 11.6078)" class="st24" width="1.2" height="1.2"></rect>
			
				<rect x="11.5" y="6.4" transform="matrix(0.7071 -0.7071 0.7071 0.7071 -1.2796 10.2735)" class="st24" width="0.6" height="0.6"></rect>
		</g>
		<g>
			<rect x="6.6" y="14.3" transform="matrix(0.7071 -0.7071 0.7071 0.7071 -8.38 9.2707)" class="st38" width="0.8" height="0.8"></rect>
			
				<rect x="4.2" y="15.9" transform="matrix(0.7071 -0.7071 0.7071 0.7071 -10.1038 7.9269)" class="st38" width="0.6" height="0.6"></rect>
			
				<rect x="6.6" y="11.5" transform="matrix(0.7071 -0.7071 0.7071 0.7071 -6.3249 8.3067)" class="st38" width="0.6" height="0.6"></rect>
			<rect x="9.1" y="13" transform="matrix(0.7071 -0.7071 0.7071 0.7071 -6.85 10.6361)" class="st38" width="0.5" height="1.2"></rect>
			
				<rect x="5.3" y="19.3" transform="matrix(0.7071 -0.7071 0.7071 0.7071 -12.1443 9.8724)" class="st38" width="1.2" height="0.6"></rect>
			
				<rect x="6.7" y="16.8" transform="matrix(0.7071 -0.7071 0.7071 0.7071 -10.1852 10.3558)" class="st38" width="1.4" height="1.4"></rect>
		</g>
		<g>
			<rect x="2.2" y="23.1" transform="matrix(0.7072 -0.707 0.707 0.7072 -15.6989 8.5681)" class="st39" width="0.6" height="0.2"></rect>
			
				<rect x="3.1" y="19.5" transform="matrix(0.7072 -0.7071 0.7071 0.7072 -13.0419 8.1703)" class="st39" width="0.6" height="0.6"></rect>
		</g>
		<g>
			
				<rect x="2.2" y="29.3" transform="matrix(0.7071 -0.7071 0.7071 0.7071 -20.2182 10.4646)" class="st40" width="0.6" height="0.6"></rect>
			
				<rect x="2.8" y="32.7" transform="matrix(0.7071 -0.7071 0.7071 0.7071 -22.4638 11.8301)" class="st40" width="0.6" height="0.6"></rect>
			
				<rect x="3.9" y="30.4" transform="matrix(0.7071 -0.7071 0.7071 0.7071 -20.5547 12.1113)" class="st40" width="0.8" height="0.8"></rect>
		</g>
		<g>
			<polygon class="st35" points="47.9,43.9 48,43.7 48.3,43.5 47.9,43 47.5,43.5    "></polygon>
			
				<rect x="45.2" y="38.3" transform="matrix(0.7071 -0.7071 0.7071 0.7071 -14.2187 43.7437)" class="st35" width="0.9" height="1.5"></rect>
			
				<rect x="47.4" y="40.6" transform="matrix(0.7071 -0.7071 0.7071 0.7071 -15.0243 45.8109)" class="st35" width="0.8" height="0.8"></rect>
			<polygon class="st35" points="45.4,45.6 45,46 45.2,46.2 45.4,46.4 45.8,46 45.8,46    "></polygon>
			
				<rect x="40.5" y="40.4" transform="matrix(0.7071 -0.7071 0.7071 0.7071 -17.1074 41.441)" class="st35" width="1.9" height="1.9"></rect>
			
				<rect x="45.3" y="42.9" transform="matrix(0.7071 -0.7072 0.7072 0.7071 -17.2639 45.0258)" class="st35" width="0.8" height="0.8"></rect>
			<polygon class="st35" points="43.4,46.1 42.8,45.6 42.6,45.8 42.3,46.1 42.9,46.6 43.2,46.4    "></polygon>
			<polygon class="st35" points="40.6,43.3 39,41.8 38.5,42.3 40.1,43.8 40.4,43.6    "></polygon>
			
				<rect x="42" y="37.6" transform="matrix(0.7071 -0.7071 0.7071 0.7071 -14.0792 41.6786)" class="st35" width="2.6" height="0.4"></rect>
			<polygon class="st35" points="42.2,45 43,44.1 42.2,43.2 41.7,43.7 41.3,44.1 41.7,44.5    "></polygon>
			<polygon class="st35" points="44.9,40.6 44.9,40.6 45,40.6 44.1,39.7 44.1,39.8 43.3,40.6 44.1,41.4    "></polygon>
		</g>
		<g>
			
				<rect x="23.1" y="52" transform="matrix(0.7071 -0.7071 0.7071 0.7071 -30.1035 31.8648)" class="st41" width="0.6" height="0.6"></rect>
			
				<rect x="21" y="50.4" transform="matrix(0.7071 -0.7071 0.7071 0.7071 -29.6299 30.0556)" class="st41" width="0.8" height="0.8"></rect>
		</g>
		
			<rect x="18.7" y="51" transform="matrix(0.7071 -0.7071 0.7071 0.7071 -30.5968 28.4318)" class="st42" width="0.6" height="0.4"></rect>
		<rect x="33.3" y="3.6" transform="matrix(0.7071 -0.7071 0.7071 0.7071 7.0215 24.742)" class="st43" width="0.2" height="0.5"></rect>
		<g>
			
				<rect x="14.7" y="49" transform="matrix(0.7071 -0.7071 0.7071 0.7071 -30.4212 25.0387)" class="st41" width="0.6" height="0.6"></rect>
			
				<rect x="13.6" y="46.6" transform="matrix(0.7071 -0.7072 0.7072 0.7071 -29.1308 23.712)" class="st41" width="0.8" height="0.8"></rect>
			
				<rect x="18.5" y="50.9" transform="matrix(0.7072 -0.707 0.707 0.7072 -30.5059 28.232)" class="st41" width="0.6" height="0.2"></rect>
			
				<rect x="19.9" y="47.1" transform="matrix(0.7071 -0.7071 0.7071 0.7071 -27.6981 28.4536)" class="st41" width="1.2" height="1.2"></rect>
			<rect x="16" y="42.7" transform="matrix(0.7071 -0.7071 0.7071 0.7071 -25.6563 24.3083)" class="st41" width="1" height="0.9"></rect>
			
				<rect x="17.1" y="48.6" transform="matrix(0.7071 -0.7071 0.7071 0.7071 -29.5537 26.7506)" class="st41" width="0.8" height="0.8"></rect>
			<rect x="16" y="45" transform="matrix(0.7071 -0.7071 0.7071 0.7071 -27.4298 25.2624)" class="st41" width="1.5" height="1.5"></rect>
		</g>
		<g>
			
				<rect x="41.7" y="15.8" transform="matrix(0.7071 -0.7071 0.7071 0.7071 1.3022 35.3113)" class="st44" width="3.1" height="0.5"></rect>
			
				<rect x="45.9" y="19.6" transform="matrix(0.7071 -0.7071 0.7071 0.7071 -0.9535 39.5103)" class="st44" width="2.7" height="2.7"></rect>
			
				<rect x="43.2" y="17.4" transform="matrix(0.7071 -0.7071 0.7071 0.7071 -0.125 36.7462)" class="st44" width="2.2" height="2.2"></rect>
			<polygon class="st44" points="43.7,25.4 46.1,22.9 43.5,20.3 41.6,22.2 40.7,21.2 42.6,19.3 41.2,17.9 38.7,20.3    "></polygon>
			<rect x="47.6" y="17.6" transform="matrix(0.7071 -0.7071 0.7071 0.7071 1.0797 38.9698)" class="st44" width="0" height="1.2"></rect>
			
				<rect x="45.5" y="15.9" transform="matrix(0.7071 -0.7071 0.7071 0.7071 1.6598 37.1934)" class="st44" width="0.4" height="1.4"></rect>
		</g>
	</g>
</g>
</svg>
